<svg version="1.1" xmlns="http://www.w3.org/2000/svg" xmlns:xlink="http://www.w3.org/1999/xlink" width="60.56583" height="60.56583" viewBox="0,0,60.56583,60.56583"><g transform="translate(-209.71709,-149.71709)"><g data-paper-data="{&quot;isPaintingLayer&quot;:true}" fill-rule="nonzero" stroke="none" stroke-width="0" stroke-linecap="butt" stroke-linejoin="miter" stroke-miterlimit="10" stroke-dasharray="" stroke-dashoffset="0" style="mix-blend-mode: normal"><g fill="#e5e5e5"><path d="M219.82294,187.68785c0,-0.65903 0.51164,-1.05881 1.05936,-1.05881c1.53158,0 8.8675,0 11.60956,0c0.64607,0 1.03713,0.49588 1.03713,1.03043c0,1.11482 0,9.65435 0,15.1645c0,1.94906 -3.69339,5.33361 -5.41934,5.33361c-2.96582,0 -8.29227,0.00916 -8.29227,0.00916c0,0 0.00556,-17.7156 0.00556,-20.47889z"/><path d="M219.80411,187.68785c0,-0.58228 0.47203,-1.05431 1.05431,-1.05431c0.58228,0 1.05431,0.47203 1.05431,1.05431c0,0.58228 -0.47203,1.05431 -1.05431,1.05431c-0.58228,0 -1.05431,-0.47203 -1.05431,-1.05431z"/><path d="M231.42179,187.67809c0,-0.58228 0.47203,-1.05431 1.05431,-1.05431c0.58228,0 1.05431,0.47203 1.05431,1.05431c0,0.58228 -0.47203,1.05431 -1.05431,1.05431c-0.58228,0 -1.05431,-0.47203 -1.05431,-1.05431z"/><path d="M223.11987,202.94847c0,-2.87427 2.33005,-5.20431 5.20431,-5.20431c2.87427,0 5.20431,2.33004 5.20431,5.20431c0,2.87427 -2.33004,5.20431 -5.20431,5.20431c-2.87427,0 -5.20431,-2.33004 -5.20431,-5.20431z"/><path d="M217.27987,200.01209c0,-1.40067 1.13546,-2.53613 2.53613,-2.53613c1.40067,0 2.53613,1.13547 2.53613,2.53613c0,1.40067 -1.13546,2.53612 -2.53613,2.53612c-1.40067,0 -2.53613,-1.13546 -2.53613,-2.53612z"/><path d="M217.27987,205.63027c0,-1.40067 1.13546,-2.53613 2.53613,-2.53613c1.40067,0 2.53613,1.13547 2.53613,2.53613c0,1.40067 -1.13546,2.53612 -2.53613,2.53612c-1.40067,0 -2.53613,-1.13546 -2.53613,-2.53612z"/><path d="M217.28291,199.75908c0,0 1.79883,0.00935 2.51491,0.00935c1.40067,0 2.53613,1.36304 2.53613,3.04444c0,1.6814 -1.13546,3.04444 -2.53613,3.04444c-0.66424,0 -2.52098,-0.00065 -2.52098,-0.00065z"/></g><g fill="#e5e5e5"><path d="M219.79759,184.41826c0,-1.53853 0,-8.81523 0,-11.56631c0,-0.65781 0.41085,-1.05688 1.08619,-1.05688c2.78734,0 10.08025,0 11.58941,0c0.53455,0 1.03044,0.39105 1.03044,1.03713c0,2.74205 0,10.07798 0,11.60956c0,0.54772 -0.39978,1.05936 -1.05882,1.05936c-2.76328,0 -10.08443,0 -11.60437,0c-0.54021,0 -1.04285,-0.52449 -1.04285,-1.08285z"/><path d="M219.78613,184.46208c0,-0.58228 0.47203,-1.05431 1.05431,-1.05431c0.58228,0 1.05431,0.47203 1.05431,1.05431c0,0.58228 -0.47203,1.05431 -1.05431,1.05431c-0.58228,0 -1.05431,-0.47203 -1.05431,-1.05431z"/><path d="M231.3905,184.46563c0,-0.58228 0.47203,-1.05431 1.05431,-1.05431c0.58228,0 1.05431,0.47203 1.05431,1.05431c0,0.58228 -0.47203,1.05431 -1.05431,1.05431c-0.58228,0 -1.05431,-0.47203 -1.05431,-1.05431z"/><path d="M231.40026,172.84795c0,-0.58228 0.47203,-1.05431 1.05431,-1.05431c0.58228,0 1.05431,0.47203 1.05431,1.05431c0,0.58228 -0.47203,1.05431 -1.05431,1.05431c-0.58228,0 -1.05431,-0.47203 -1.05431,-1.05431z"/><path d="M219.80238,172.84987c0,-0.58228 0.47203,-1.05431 1.05431,-1.05431c0.58228,0 1.05431,0.47203 1.05431,1.05431c0,0.58228 -0.47203,1.05431 -1.05431,1.05431c-0.58228,0 -1.05431,-0.47203 -1.05431,-1.05431z"/></g><g fill="#6fabff"><path d="M220.50187,183.55755c0,-1.53853 0,-8.81523 0,-11.56631c0,-0.65781 0.41085,-1.05688 1.08619,-1.05688c2.78734,0 10.08025,0 11.58941,0c0.53455,0 1.03044,0.39104 1.03044,1.03712c0,2.74205 0,10.07798 0,11.60956c0,0.54772 -0.39978,1.05936 -1.05882,1.05936c-2.76328,0 -10.08443,0 -11.60437,0c-0.54021,0 -1.04285,-0.52449 -1.04285,-1.08285z"/><path d="M220.49041,183.60137c0,-0.58228 0.47203,-1.05431 1.05431,-1.05431c0.58228,0 1.05431,0.47203 1.05431,1.05431c0,0.58228 -0.47203,1.05431 -1.05431,1.05431c-0.58228,0 -1.05431,-0.47203 -1.05431,-1.05431z"/><path d="M232.09479,183.60491c0,-0.58228 0.47203,-1.05431 1.05431,-1.05431c0.58228,0 1.05431,0.47203 1.05431,1.05431c0,0.58228 -0.47203,1.05431 -1.05431,1.05431c-0.58228,0 -1.05431,-0.47203 -1.05431,-1.05431z"/><path d="M232.10454,171.98723c0,-0.58228 0.47203,-1.05431 1.05431,-1.05431c0.58228,0 1.05431,0.47203 1.05431,1.05431c0,0.58228 -0.47203,1.05431 -1.05431,1.05431c-0.58228,0 -1.05431,-0.47203 -1.05431,-1.05431z"/><path d="M220.50666,171.98915c0,-0.58228 0.47203,-1.05431 1.05431,-1.05431c0.58228,0 1.05431,0.47203 1.05431,1.05431c0,0.58228 -0.47203,1.05431 -1.05431,1.05431c-0.58228,0 -1.05431,-0.47203 -1.05431,-1.05431z"/></g><g fill="#e5e5e5"><path d="M234.9108,184.29505c0,-1.53853 0,-8.81523 0,-11.56631c0,-0.65781 0.41085,-1.05688 1.08619,-1.05688c2.78734,0 23.84025,0 25.34941,0c0.53455,0 1.03044,0.39105 1.03044,1.03713c0,2.74205 0,10.07798 0,11.60956c0,0.54772 -0.39978,1.05936 -1.05882,1.05936c-2.76328,0 -23.84443,0 -25.36437,0c-0.54021,0 -1.04285,-0.52449 -1.04285,-1.08285z"/><path d="M234.89934,184.33886c0,-0.58228 0.47203,-1.05431 1.05431,-1.05431c0.58228,0 1.05431,0.47203 1.05431,1.05431c0,0.58228 -0.47203,1.05431 -1.05431,1.05431c-0.58228,0 -1.05431,-0.47203 -1.05431,-1.05431z"/><path d="M260.26372,184.34241c0,-0.58228 0.47203,-1.05431 1.05431,-1.05431c0.58228,0 1.05431,0.47203 1.05431,1.05431c0,0.58228 -0.47203,1.05431 -1.05431,1.05431c-0.58228,0 -1.05431,-0.47203 -1.05431,-1.05431z"/><path d="M260.27347,172.72473c0,-0.58228 0.47203,-1.05431 1.05431,-1.05431c0.58228,0 1.05431,0.47203 1.05431,1.05431c0,0.58228 -0.47203,1.05431 -1.05431,1.05431c-0.58228,0 -1.05431,-0.47203 -1.05431,-1.05431z"/><path d="M234.91559,172.72665c0,-0.58228 0.47203,-1.05431 1.05431,-1.05431c0.58228,0 1.05431,0.47203 1.05431,1.05431c0,0.58228 -0.47203,1.05431 -1.05431,1.05431c-0.58228,0 -1.05431,-0.47203 -1.05431,-1.05431z"/></g><g fill="#f3f3f3"><path d="M235.61509,183.43433c0,-1.53853 0,-8.81523 0,-11.56631c0,-0.65781 0.41085,-1.05688 1.08619,-1.05688c2.78734,0 23.84025,0 25.34941,0c0.53455,0 1.03044,0.39105 1.03044,1.03713c0,2.74205 0,10.07798 0,11.60956c0,0.54772 -0.39978,1.05936 -1.05881,1.05936c-2.76328,0 -23.84443,0 -25.36437,0c-0.54021,0 -1.04285,-0.52449 -1.04285,-1.08285z"/><path d="M235.60363,183.47815c0,-0.58228 0.47203,-1.05431 1.05431,-1.05431c0.58228,0 1.05431,0.47203 1.05431,1.05431c0,0.58228 -0.47203,1.05431 -1.05431,1.05431c-0.58228,0 -1.05431,-0.47203 -1.05431,-1.05431z"/><path d="M260.968,183.4817c0,-0.58228 0.47203,-1.05431 1.05431,-1.05431c0.58228,0 1.05431,0.47203 1.05431,1.05431c0,0.58228 -0.47203,1.05431 -1.05431,1.05431c-0.58228,0 -1.05431,-0.47203 -1.05431,-1.05431z"/><path d="M260.97776,171.86402c0,-0.58228 0.47203,-1.05431 1.05431,-1.05431c0.58228,0 1.05431,0.47203 1.05431,1.05431c0,0.58228 -0.47203,1.05431 -1.05431,1.05431c-0.58228,0 -1.05431,-0.47203 -1.05431,-1.05431z"/><path d="M235.61988,171.86594c0,-0.58228 0.47203,-1.05431 1.05431,-1.05431c0.58228,0 1.05431,0.47203 1.05431,1.05431c0,0.58228 -0.47203,1.05431 -1.05431,1.05431c-0.58228,0 -1.05431,-0.47203 -1.05431,-1.05431z"/></g><g fill="#e5e5e5"><path d="M219.95247,169.39921c0,-1.53853 0,-8.81523 0,-11.56631c0,-0.65781 0.41085,-1.05688 1.08619,-1.05688c2.78734,0 38.77775,0 40.28692,0c0.53455,0 1.03043,0.39105 1.03043,1.03713c0,2.74205 0,10.07798 0,11.60956c0,0.54772 -0.39978,1.05936 -1.05881,1.05936c-2.76328,0 -38.78193,0 -40.30187,0c-0.54021,0 -1.04285,-0.52449 -1.04285,-1.08285z"/><path d="M219.94101,169.44303c0,-0.58228 0.47203,-1.05431 1.05431,-1.05431c0.58228,0 1.05431,0.47203 1.05431,1.05431c0,0.58228 -0.47203,1.05431 -1.05431,1.05431c-0.58228,0 -1.05431,-0.47203 -1.05431,-1.05431z"/><path d="M260.24288,169.44658c0,-0.58228 0.47203,-1.05431 1.05431,-1.05431c0.58228,0 1.05431,0.47203 1.05431,1.05431c0,0.58228 -0.47203,1.05431 -1.05431,1.05431c-0.58228,0 -1.05431,-0.47203 -1.05431,-1.05431z"/><path d="M260.25264,157.82889c0,-0.58228 0.47203,-1.05431 1.05431,-1.05431c0.58228,0 1.05431,0.47203 1.05431,1.05431c0,0.58228 -0.47203,1.05431 -1.05431,1.05431c-0.58228,0 -1.05431,-0.47203 -1.05431,-1.05431z"/><path d="M219.95726,157.83082c0,-0.58228 0.47203,-1.05431 1.05431,-1.05431c0.58228,0 1.05431,0.47203 1.05431,1.05431c0,0.58228 -0.47203,1.05431 -1.05431,1.05431c-0.58228,0 -1.05431,-0.47203 -1.05431,-1.05431z"/></g><g fill="#f3f3f3"><path d="M220.65675,168.5385c0,-1.53853 0,-8.81523 0,-11.56631c0,-0.65781 0.41085,-1.05688 1.08619,-1.05688c2.78734,0 38.77775,0 40.28691,0c0.53455,0 1.03044,0.39105 1.03044,1.03713c0,2.74205 0,10.07798 0,11.60956c0,0.54772 -0.39978,1.05936 -1.05881,1.05936c-2.76328,0 -38.78193,0 -40.30188,0c-0.54021,0 -1.04285,-0.52449 -1.04285,-1.08285z"/><path d="M220.64529,168.58231c0,-0.58228 0.47203,-1.05431 1.05431,-1.05431c0.58228,0 1.05431,0.47203 1.05431,1.05431c0,0.58228 -0.47203,1.05431 -1.05431,1.05431c-0.58228,0 -1.05431,-0.47203 -1.05431,-1.05431z"/><path d="M260.94717,168.58586c0,-0.58228 0.47203,-1.05431 1.05431,-1.05431c0.58228,0 1.05431,0.47203 1.05431,1.05431c0,0.58228 -0.47203,1.05431 -1.05431,1.05431c-0.58228,0 -1.05431,-0.47203 -1.05431,-1.05431z"/><path d="M260.95692,156.96818c0,-0.58228 0.47203,-1.05431 1.05431,-1.05431c0.58228,0 1.05431,0.47203 1.05431,1.05431c0,0.58228 -0.47203,1.05431 -1.05431,1.05431c-0.58228,0 -1.05431,-0.47203 -1.05431,-1.05431z"/><path d="M220.66154,156.9701c0,-0.58228 0.47203,-1.05431 1.05431,-1.05431c0.58228,0 1.05431,0.47203 1.05431,1.05431c0,0.58228 -0.47203,1.05431 -1.05431,1.05431c-0.58228,0 -1.05431,-0.47203 -1.05431,-1.05431z"/></g><path d="M220.43862,206.18814c0,-0.58228 0.47203,-1.05431 1.05431,-1.05431c0.58228,0 1.05431,0.47203 1.05431,1.05431c0,0.58228 -0.47203,1.05431 -1.05431,1.05431c-0.58228,0 -1.05431,-0.47203 -1.05431,-1.05431z" fill="#f3f3f3"/><path d="M220.45389,186.76126c0,-0.65903 0.51164,-1.05881 1.05936,-1.05881c1.53158,0 8.8675,0 11.60956,0c0.64607,0 1.03713,0.49588 1.03713,1.03043c0,1.11482 0,9.65435 0,15.1645c0,1.94906 -3.69339,5.33361 -5.41934,5.33361c-2.96582,0 -8.29227,0.00916 -8.29227,0.00916c0,0 0.00556,-17.7156 0.00556,-20.47889z" fill="#f3f3f3"/><path d="M220.43507,186.76126c0,-0.58228 0.47203,-1.05431 1.05431,-1.05431c0.58228,0 1.05431,0.47203 1.05431,1.05431c0,0.58228 -0.47203,1.05431 -1.05431,1.05431c-0.58228,0 -1.05431,-0.47203 -1.05431,-1.05431z" fill="#f3f3f3"/><path d="M232.05275,186.75151c0,-0.58228 0.47203,-1.05431 1.05431,-1.05431c0.58228,0 1.05431,0.47203 1.05431,1.05431c0,0.58228 -0.47203,1.05431 -1.05431,1.05431c-0.58228,0 -1.05431,-0.47203 -1.05431,-1.05431z" fill="#f3f3f3"/><path d="M223.75083,202.02189c0,-2.87427 2.33005,-5.20431 5.20431,-5.20431c2.87427,0 5.20431,2.33004 5.20431,5.20431c0,2.87427 -2.33004,5.20431 -5.20431,5.20431c-2.87427,0 -5.20431,-2.33004 -5.20431,-5.20431z" fill="#f3f3f3"/><path d="M217.91082,199.08551c0,-1.40067 1.13546,-2.53613 2.53613,-2.53613c1.40067,0 2.53613,1.13547 2.53613,2.53613c0,1.40067 -1.13546,2.53612 -2.53613,2.53612c-1.40067,0 -2.53613,-1.13546 -2.53613,-2.53612z" fill="#f3f3f3"/><path d="M217.91082,204.70369c0,-1.40067 1.13546,-2.53613 2.53613,-2.53613c1.40067,0 2.53613,1.13547 2.53613,2.53613c0,1.40067 -1.13546,2.53612 -2.53613,2.53612c-1.40067,0 -2.53613,-1.13546 -2.53613,-2.53612z" fill="#f3f3f3"/><path d="M217.91386,198.8325c0,0 1.79883,0.00935 2.51491,0.00935c1.40067,0 2.53613,1.36304 2.53613,3.04444c0,1.6814 -1.13546,3.04444 -2.53613,3.04444c-0.66424,0 -2.52098,-0.00065 -2.52098,-0.00065z" fill="#f3f3f3"/><path d="M209.71709,210.28291v-60.56583h60.56583v60.56583z" fill="none"/></g></g></svg>