<svg version="1.1" xmlns="http://www.w3.org/2000/svg" xmlns:xlink="http://www.w3.org/1999/xlink" width="69.55002" height="69.55002" viewBox="0,0,69.55002,69.55002"><g transform="translate(-205.22499,-145.22499)"><g data-paper-data="{&quot;isPaintingLayer&quot;:true}" fill-rule="nonzero" stroke-linejoin="miter" stroke-miterlimit="10" stroke-dasharray="" stroke-dashoffset="0" style="mix-blend-mode: normal"><g stroke="none" stroke-width="0" stroke-linecap="butt"><g fill="#e5e5e5"><path d="M209.85969,184.57273c0,-0.65903 0.51164,-1.05881 1.05936,-1.05881c1.53158,0 8.8675,0 11.60956,0c0.64607,0 1.03713,0.49588 1.03713,1.03043c0,1.11482 0,9.65435 0,15.1645c0,1.94906 -3.69339,5.33361 -5.41934,5.33361c-2.96582,0 -8.29227,0.00916 -8.29227,0.00916c0,0 0.00556,-17.7156 0.00556,-20.47889z"/><path d="M209.84086,184.57273c0,-0.58228 0.47203,-1.05431 1.05431,-1.05431c0.58228,0 1.05431,0.47203 1.05431,1.05431c0,0.58228 -0.47203,1.05431 -1.05431,1.05431c-0.58228,0 -1.05431,-0.47203 -1.05431,-1.05431z"/><path d="M221.45854,184.56297c0,-0.58228 0.47203,-1.05431 1.05431,-1.05431c0.58228,0 1.05431,0.47203 1.05431,1.05431c0,0.58228 -0.47203,1.05431 -1.05431,1.05431c-0.58228,0 -1.05431,-0.47203 -1.05431,-1.05431z"/><path d="M213.15662,199.83335c0,-2.87427 2.33005,-5.20431 5.20431,-5.20431c2.87427,0 5.20431,2.33004 5.20431,5.20431c0,2.87427 -2.33004,5.20431 -5.20431,5.20431c-2.87427,0 -5.20431,-2.33004 -5.20431,-5.20431z"/><path d="M207.31662,196.89697c0,-1.40067 1.13546,-2.53613 2.53613,-2.53613c1.40067,0 2.53613,1.13547 2.53613,2.53613c0,1.40067 -1.13546,2.53612 -2.53613,2.53612c-1.40067,0 -2.53613,-1.13546 -2.53613,-2.53612z"/><path d="M207.31662,202.51515c0,-1.40067 1.13546,-2.53613 2.53613,-2.53613c1.40067,0 2.53613,1.13547 2.53613,2.53613c0,1.40067 -1.13546,2.53612 -2.53613,2.53612c-1.40067,0 -2.53613,-1.13546 -2.53613,-2.53612z"/><path d="M207.31966,196.64396c0,0 1.79883,0.00935 2.51491,0.00935c1.40067,0 2.53613,1.36304 2.53613,3.04444c0,1.6814 -1.13546,3.04444 -2.53613,3.04444c-0.66424,0 -2.52098,-0.00065 -2.52098,-0.00065z"/></g><g fill="#e5e5e5"><path d="M209.83434,181.30314c0,-1.53853 0,-8.81523 0,-11.56631c0,-0.65781 0.41085,-1.05688 1.08619,-1.05688c2.78734,0 10.08025,0 11.58941,0c0.53455,0 1.03044,0.39105 1.03044,1.03713c0,2.74205 0,10.07798 0,11.60956c0,0.54772 -0.39978,1.05936 -1.05882,1.05936c-2.76328,0 -10.08443,0 -11.60437,0c-0.54021,0 -1.04285,-0.52449 -1.04285,-1.08285z"/><path d="M209.82288,181.34696c0,-0.58228 0.47203,-1.05431 1.05431,-1.05431c0.58228,0 1.05431,0.47203 1.05431,1.05431c0,0.58228 -0.47203,1.05431 -1.05431,1.05431c-0.58228,0 -1.05431,-0.47203 -1.05431,-1.05431z"/><path d="M221.42725,181.35051c0,-0.58228 0.47203,-1.05431 1.05431,-1.05431c0.58228,0 1.05431,0.47203 1.05431,1.05431c0,0.58228 -0.47203,1.05431 -1.05431,1.05431c-0.58228,0 -1.05431,-0.47203 -1.05431,-1.05431z"/><path d="M221.43701,169.73283c0,-0.58228 0.47203,-1.05431 1.05431,-1.05431c0.58228,0 1.05431,0.47203 1.05431,1.05431c0,0.58228 -0.47203,1.05431 -1.05431,1.05431c-0.58228,0 -1.05431,-0.47203 -1.05431,-1.05431z"/><path d="M209.83913,169.73475c0,-0.58228 0.47203,-1.05431 1.05431,-1.05431c0.58228,0 1.05431,0.47203 1.05431,1.05431c0,0.58228 -0.47203,1.05431 -1.05431,1.05431c-0.58228,0 -1.05431,-0.47203 -1.05431,-1.05431z"/></g><g fill="#6fabff"><path d="M210.53862,180.44243c0,-1.53853 0,-8.81523 0,-11.56631c0,-0.65781 0.41085,-1.05688 1.08619,-1.05688c2.78734,0 10.08025,0 11.58941,0c0.53455,0 1.03044,0.39104 1.03044,1.03712c0,2.74205 0,10.07798 0,11.60956c0,0.54772 -0.39978,1.05936 -1.05882,1.05936c-2.76328,0 -10.08443,0 -11.60437,0c-0.54021,0 -1.04285,-0.52449 -1.04285,-1.08285z"/><path d="M210.52716,180.48625c0,-0.58228 0.47203,-1.05431 1.05431,-1.05431c0.58228,0 1.05431,0.47203 1.05431,1.05431c0,0.58228 -0.47203,1.05431 -1.05431,1.05431c-0.58228,0 -1.05431,-0.47203 -1.05431,-1.05431z"/><path d="M222.13154,180.48979c0,-0.58228 0.47203,-1.05431 1.05431,-1.05431c0.58228,0 1.05431,0.47203 1.05431,1.05431c0,0.58228 -0.47203,1.05431 -1.05431,1.05431c-0.58228,0 -1.05431,-0.47203 -1.05431,-1.05431z"/><path d="M222.14129,168.87211c0,-0.58228 0.47203,-1.05431 1.05431,-1.05431c0.58228,0 1.05431,0.47203 1.05431,1.05431c0,0.58228 -0.47203,1.05431 -1.05431,1.05431c-0.58228,0 -1.05431,-0.47203 -1.05431,-1.05431z"/><path d="M210.54341,168.87403c0,-0.58228 0.47203,-1.05431 1.05431,-1.05431c0.58228,0 1.05431,0.47203 1.05431,1.05431c0,0.58228 -0.47203,1.05431 -1.05431,1.05431c-0.58228,0 -1.05431,-0.47203 -1.05431,-1.05431z"/></g><g fill="#e5e5e5"><path d="M224.94755,181.17993c0,-1.53853 0,-8.81523 0,-11.56631c0,-0.65781 0.41085,-1.05688 1.08619,-1.05688c2.78734,0 23.84025,0 25.34941,0c0.53455,0 1.03044,0.39105 1.03044,1.03713c0,2.74205 0,10.07798 0,11.60956c0,0.54772 -0.39978,1.05936 -1.05882,1.05936c-2.76328,0 -23.84443,0 -25.36437,0c-0.54021,0 -1.04285,-0.52449 -1.04285,-1.08285z"/><path d="M224.93609,181.22374c0,-0.58228 0.47203,-1.05431 1.05431,-1.05431c0.58228,0 1.05431,0.47203 1.05431,1.05431c0,0.58228 -0.47203,1.05431 -1.05431,1.05431c-0.58228,0 -1.05431,-0.47203 -1.05431,-1.05431z"/><path d="M250.30047,181.22729c0,-0.58228 0.47203,-1.05431 1.05431,-1.05431c0.58228,0 1.05431,0.47203 1.05431,1.05431c0,0.58228 -0.47203,1.05431 -1.05431,1.05431c-0.58228,0 -1.05431,-0.47203 -1.05431,-1.05431z"/><path d="M250.31022,169.60961c0,-0.58228 0.47203,-1.05431 1.05431,-1.05431c0.58228,0 1.05431,0.47203 1.05431,1.05431c0,0.58228 -0.47203,1.05431 -1.05431,1.05431c-0.58228,0 -1.05431,-0.47203 -1.05431,-1.05431z"/><path d="M224.95234,169.61153c0,-0.58228 0.47203,-1.05431 1.05431,-1.05431c0.58228,0 1.05431,0.47203 1.05431,1.05431c0,0.58228 -0.47203,1.05431 -1.05431,1.05431c-0.58228,0 -1.05431,-0.47203 -1.05431,-1.05431z"/></g><g fill="#f3f3f3"><path d="M225.65184,180.31921c0,-1.53853 0,-8.81523 0,-11.56631c0,-0.65781 0.41085,-1.05688 1.08619,-1.05688c2.78734,0 23.84025,0 25.34941,0c0.53455,0 1.03044,0.39105 1.03044,1.03713c0,2.74205 0,10.07798 0,11.60956c0,0.54772 -0.39978,1.05936 -1.05881,1.05936c-2.76328,0 -23.84443,0 -25.36437,0c-0.54021,0 -1.04285,-0.52449 -1.04285,-1.08285z"/><path d="M225.64038,180.36303c0,-0.58228 0.47203,-1.05431 1.05431,-1.05431c0.58228,0 1.05431,0.47203 1.05431,1.05431c0,0.58228 -0.47203,1.05431 -1.05431,1.05431c-0.58228,0 -1.05431,-0.47203 -1.05431,-1.05431z"/><path d="M251.00475,180.36658c0,-0.58228 0.47203,-1.05431 1.05431,-1.05431c0.58228,0 1.05431,0.47203 1.05431,1.05431c0,0.58228 -0.47203,1.05431 -1.05431,1.05431c-0.58228,0 -1.05431,-0.47203 -1.05431,-1.05431z"/><path d="M251.01451,168.7489c0,-0.58228 0.47203,-1.05431 1.05431,-1.05431c0.58228,0 1.05431,0.47203 1.05431,1.05431c0,0.58228 -0.47203,1.05431 -1.05431,1.05431c-0.58228,0 -1.05431,-0.47203 -1.05431,-1.05431z"/><path d="M225.65663,168.75082c0,-0.58228 0.47203,-1.05431 1.05431,-1.05431c0.58228,0 1.05431,0.47203 1.05431,1.05431c0,0.58228 -0.47203,1.05431 -1.05431,1.05431c-0.58228,0 -1.05431,-0.47203 -1.05431,-1.05431z"/></g><g fill="#e5e5e5"><path d="M209.98922,166.28409c0,-1.53853 0,-8.81523 0,-11.56631c0,-0.65781 0.41085,-1.05688 1.08619,-1.05688c2.78734,0 38.77775,0 40.28692,0c0.53455,0 1.03043,0.39105 1.03043,1.03713c0,2.74205 0,10.07798 0,11.60956c0,0.54772 -0.39978,1.05936 -1.05881,1.05936c-2.76328,0 -38.78193,0 -40.30187,0c-0.54021,0 -1.04285,-0.52449 -1.04285,-1.08285z"/><path d="M209.97776,166.32791c0,-0.58228 0.47203,-1.05431 1.05431,-1.05431c0.58228,0 1.05431,0.47203 1.05431,1.05431c0,0.58228 -0.47203,1.05431 -1.05431,1.05431c-0.58228,0 -1.05431,-0.47203 -1.05431,-1.05431z"/><path d="M250.27963,166.33146c0,-0.58228 0.47203,-1.05431 1.05431,-1.05431c0.58228,0 1.05431,0.47203 1.05431,1.05431c0,0.58228 -0.47203,1.05431 -1.05431,1.05431c-0.58228,0 -1.05431,-0.47203 -1.05431,-1.05431z"/><path d="M250.28939,154.71377c0,-0.58228 0.47203,-1.05431 1.05431,-1.05431c0.58228,0 1.05431,0.47203 1.05431,1.05431c0,0.58228 -0.47203,1.05431 -1.05431,1.05431c-0.58228,0 -1.05431,-0.47203 -1.05431,-1.05431z"/><path d="M209.99401,154.7157c0,-0.58228 0.47203,-1.05431 1.05431,-1.05431c0.58228,0 1.05431,0.47203 1.05431,1.05431c0,0.58228 -0.47203,1.05431 -1.05431,1.05431c-0.58228,0 -1.05431,-0.47203 -1.05431,-1.05431z"/></g><g fill="#f3f3f3"><path d="M210.6935,165.42338c0,-1.53853 0,-8.81523 0,-11.56631c0,-0.65781 0.41085,-1.05688 1.08619,-1.05688c2.78734,0 38.77775,0 40.28691,0c0.53455,0 1.03044,0.39105 1.03044,1.03713c0,2.74205 0,10.07798 0,11.60956c0,0.54772 -0.39978,1.05936 -1.05881,1.05936c-2.76328,0 -38.78193,0 -40.30188,0c-0.54021,0 -1.04285,-0.52449 -1.04285,-1.08285z"/><path d="M210.68204,165.46719c0,-0.58228 0.47203,-1.05431 1.05431,-1.05431c0.58228,0 1.05431,0.47203 1.05431,1.05431c0,0.58228 -0.47203,1.05431 -1.05431,1.05431c-0.58228,0 -1.05431,-0.47203 -1.05431,-1.05431z"/><path d="M250.98392,165.47074c0,-0.58228 0.47203,-1.05431 1.05431,-1.05431c0.58228,0 1.05431,0.47203 1.05431,1.05431c0,0.58228 -0.47203,1.05431 -1.05431,1.05431c-0.58228,0 -1.05431,-0.47203 -1.05431,-1.05431z"/><path d="M250.99367,153.85306c0,-0.58228 0.47203,-1.05431 1.05431,-1.05431c0.58228,0 1.05431,0.47203 1.05431,1.05431c0,0.58228 -0.47203,1.05431 -1.05431,1.05431c-0.58228,0 -1.05431,-0.47203 -1.05431,-1.05431z"/><path d="M210.69829,153.85498c0,-0.58228 0.47203,-1.05431 1.05431,-1.05431c0.58228,0 1.05431,0.47203 1.05431,1.05431c0,0.58228 -0.47203,1.05431 -1.05431,1.05431c-0.58228,0 -1.05431,-0.47203 -1.05431,-1.05431z"/></g><path d="M210.47537,203.07302c0,-0.58228 0.47203,-1.05431 1.05431,-1.05431c0.58228,0 1.05431,0.47203 1.05431,1.05431c0,0.58228 -0.47203,1.05431 -1.05431,1.05431c-0.58228,0 -1.05431,-0.47203 -1.05431,-1.05431z" fill="#f3f3f3"/><path d="M210.49064,183.64614c0,-0.65903 0.51164,-1.05881 1.05936,-1.05881c1.53158,0 8.8675,0 11.60956,0c0.64607,0 1.03713,0.49588 1.03713,1.03043c0,1.11482 0,9.65435 0,15.1645c0,1.94906 -3.69339,5.33361 -5.41934,5.33361c-2.96582,0 -8.29227,0.00916 -8.29227,0.00916c0,0 0.00556,-17.7156 0.00556,-20.47889z" fill="#f3f3f3"/><path d="M210.47182,183.64614c0,-0.58228 0.47203,-1.05431 1.05431,-1.05431c0.58228,0 1.05431,0.47203 1.05431,1.05431c0,0.58228 -0.47203,1.05431 -1.05431,1.05431c-0.58228,0 -1.05431,-0.47203 -1.05431,-1.05431z" fill="#f3f3f3"/><path d="M222.0895,183.63639c0,-0.58228 0.47203,-1.05431 1.05431,-1.05431c0.58228,0 1.05431,0.47203 1.05431,1.05431c0,0.58228 -0.47203,1.05431 -1.05431,1.05431c-0.58228,0 -1.05431,-0.47203 -1.05431,-1.05431z" fill="#f3f3f3"/><path d="M213.78758,198.90677c0,-2.87427 2.33005,-5.20431 5.20431,-5.20431c2.87427,0 5.20431,2.33004 5.20431,5.20431c0,2.87427 -2.33004,5.20431 -5.20431,5.20431c-2.87427,0 -5.20431,-2.33004 -5.20431,-5.20431z" fill="#f3f3f3"/><path d="M207.94757,195.97039c0,-1.40067 1.13546,-2.53613 2.53613,-2.53613c1.40067,0 2.53613,1.13547 2.53613,2.53613c0,1.40067 -1.13546,2.53612 -2.53613,2.53612c-1.40067,0 -2.53613,-1.13546 -2.53613,-2.53612z" fill="#f3f3f3"/><path d="M207.94757,201.58857c0,-1.40067 1.13546,-2.53613 2.53613,-2.53613c1.40067,0 2.53613,1.13547 2.53613,2.53613c0,1.40067 -1.13546,2.53612 -2.53613,2.53612c-1.40067,0 -2.53613,-1.13546 -2.53613,-2.53612z" fill="#f3f3f3"/><path d="M207.95061,195.71738c0,0 1.79883,0.00935 2.51491,0.00935c1.40067,0 2.53613,1.36304 2.53613,3.04444c0,1.6814 -1.13546,3.04444 -2.53613,3.04444c-0.66424,0 -2.52098,-0.00065 -2.52098,-0.00065z" fill="#f3f3f3"/></g><text transform="translate(225.97778,202.15125) scale(0.42524,0.4377)" font-size="40" xml:space="preserve" fill="#bfbfbf" fill-rule="nonzero" stroke="none" stroke-width="1" stroke-linecap="butt" stroke-linejoin="miter" stroke-miterlimit="10" stroke-dasharray="" stroke-dashoffset="0" font-family="Sans Serif" font-weight="normal" text-anchor="start" style="mix-blend-mode: normal"><tspan x="0" dy="0">ueIRE</tspan></text><path d="M273.25942,203.00731h-47.5" fill="none" stroke="#bfbfbf" stroke-width="0.5" stroke-linecap="round"/><path d="M205.22499,214.77501v-69.55002h69.55002v69.55002z" fill="none" stroke="none" stroke-width="0" stroke-linecap="butt"/></g></g></svg>