<svg version="1.1" xmlns="http://www.w3.org/2000/svg" xmlns:xlink="http://www.w3.org/1999/xlink" width="69.55002" height="69.55002" viewBox="0,0,69.55002,69.55002"><g transform="translate(-205.22499,-145.22499)"><g data-paper-data="{&quot;isPaintingLayer&quot;:true}" fill-rule="nonzero" stroke="none" stroke-linecap="butt" stroke-linejoin="miter" stroke-miterlimit="10" stroke-dasharray="" stroke-dashoffset="0" style="mix-blend-mode: normal"><g fill="#333333" stroke-width="0"><path d="M212.05434,185.64755c0,-0.65903 0.51164,-1.05881 1.05936,-1.05881c1.53158,0 8.8675,0 11.60956,0c0.64607,0 1.03713,0.49588 1.03713,1.03043c0,1.11482 0,9.65435 0,15.1645c0,1.94906 -3.69339,5.33361 -5.41934,5.33361c-2.96582,0 -8.29227,0.00916 -8.29227,0.00916c0,0 0.00556,-17.7156 0.00556,-20.47889z"/><path d="M212.03551,185.64755c0,-0.58228 0.47203,-1.05431 1.05431,-1.05431c0.58228,0 1.05431,0.47203 1.05431,1.05431c0,0.58228 -0.47203,1.05431 -1.05431,1.05431c-0.58228,0 -1.05431,-0.47203 -1.05431,-1.05431z"/><path d="M223.65319,185.63779c0,-0.58228 0.47203,-1.05431 1.05431,-1.05431c0.58228,0 1.05431,0.47203 1.05431,1.05431c0,0.58228 -0.47203,1.05431 -1.05431,1.05431c-0.58228,0 -1.05431,-0.47203 -1.05431,-1.05431z"/><path d="M215.35127,200.90817c0,-2.87427 2.33005,-5.20431 5.20431,-5.20431c2.87427,0 5.20431,2.33004 5.20431,5.20431c0,2.87427 -2.33004,5.20431 -5.20431,5.20431c-2.87427,0 -5.20431,-2.33004 -5.20431,-5.20431z"/><path d="M209.51127,197.97179c0,-1.40067 1.13546,-2.53613 2.53613,-2.53613c1.40067,0 2.53613,1.13547 2.53613,2.53613c0,1.40067 -1.13546,2.53612 -2.53613,2.53612c-1.40067,0 -2.53613,-1.13546 -2.53613,-2.53612z"/><path d="M209.51127,203.58997c0,-1.40067 1.13546,-2.53613 2.53613,-2.53613c1.40067,0 2.53613,1.13547 2.53613,2.53613c0,1.40067 -1.13546,2.53612 -2.53613,2.53612c-1.40067,0 -2.53613,-1.13546 -2.53613,-2.53612z"/><path d="M209.51431,197.71878c0,0 1.79883,0.00935 2.51491,0.00935c1.40067,0 2.53613,1.36304 2.53613,3.04444c0,1.6814 -1.13546,3.04444 -2.53613,3.04444c-0.66424,0 -2.52098,-0.00065 -2.52098,-0.00065z"/></g><g fill="#333333" stroke-width="0"><path d="M212.02899,182.37796c0,-1.53853 0,-8.81523 0,-11.56631c0,-0.65781 0.41085,-1.05688 1.08619,-1.05688c2.78734,0 10.08025,0 11.58941,0c0.53455,0 1.03044,0.39105 1.03044,1.03713c0,2.74205 0,10.07798 0,11.60956c0,0.54772 -0.39978,1.05936 -1.05882,1.05936c-2.76328,0 -10.08443,0 -11.60437,0c-0.54021,0 -1.04285,-0.52449 -1.04285,-1.08285z"/><path d="M212.01753,182.42178c0,-0.58228 0.47203,-1.05431 1.05431,-1.05431c0.58228,0 1.05431,0.47203 1.05431,1.05431c0,0.58228 -0.47203,1.05431 -1.05431,1.05431c-0.58228,0 -1.05431,-0.47203 -1.05431,-1.05431z"/><path d="M223.6219,182.42533c0,-0.58228 0.47203,-1.05431 1.05431,-1.05431c0.58228,0 1.05431,0.47203 1.05431,1.05431c0,0.58228 -0.47203,1.05431 -1.05431,1.05431c-0.58228,0 -1.05431,-0.47203 -1.05431,-1.05431z"/><path d="M223.63166,170.80765c0,-0.58228 0.47203,-1.05431 1.05431,-1.05431c0.58228,0 1.05431,0.47203 1.05431,1.05431c0,0.58228 -0.47203,1.05431 -1.05431,1.05431c-0.58228,0 -1.05431,-0.47203 -1.05431,-1.05431z"/><path d="M212.03378,170.80957c0,-0.58228 0.47203,-1.05431 1.05431,-1.05431c0.58228,0 1.05431,0.47203 1.05431,1.05431c0,0.58228 -0.47203,1.05431 -1.05431,1.05431c-0.58228,0 -1.05431,-0.47203 -1.05431,-1.05431z"/></g><g fill="#2a83ff" stroke-width="0"><path d="M212.73327,181.51725c0,-1.53853 0,-8.81523 0,-11.56631c0,-0.65781 0.41085,-1.05688 1.08619,-1.05688c2.78734,0 10.08025,0 11.58941,0c0.53455,0 1.03044,0.39104 1.03044,1.03712c0,2.74205 0,10.07798 0,11.60956c0,0.54772 -0.39978,1.05936 -1.05882,1.05936c-2.76328,0 -10.08443,0 -11.60437,0c-0.54021,0 -1.04285,-0.52449 -1.04285,-1.08285z"/><path d="M212.72181,181.56107c0,-0.58228 0.47203,-1.05431 1.05431,-1.05431c0.58228,0 1.05431,0.47203 1.05431,1.05431c0,0.58228 -0.47203,1.05431 -1.05431,1.05431c-0.58228,0 -1.05431,-0.47203 -1.05431,-1.05431z"/><path d="M224.32619,181.56461c0,-0.58228 0.47203,-1.05431 1.05431,-1.05431c0.58228,0 1.05431,0.47203 1.05431,1.05431c0,0.58228 -0.47203,1.05431 -1.05431,1.05431c-0.58228,0 -1.05431,-0.47203 -1.05431,-1.05431z"/><path d="M224.33594,169.94693c0,-0.58228 0.47203,-1.05431 1.05431,-1.05431c0.58228,0 1.05431,0.47203 1.05431,1.05431c0,0.58228 -0.47203,1.05431 -1.05431,1.05431c-0.58228,0 -1.05431,-0.47203 -1.05431,-1.05431z"/><path d="M212.73806,169.94885c0,-0.58228 0.47203,-1.05431 1.05431,-1.05431c0.58228,0 1.05431,0.47203 1.05431,1.05431c0,0.58228 -0.47203,1.05431 -1.05431,1.05431c-0.58228,0 -1.05431,-0.47203 -1.05431,-1.05431z"/></g><g fill="#333333" stroke-width="0"><path d="M227.1422,182.25475c0,-1.53853 0,-8.81523 0,-11.56631c0,-0.65781 0.41085,-1.05688 1.08619,-1.05688c2.78734,0 23.84025,0 25.34941,0c0.53455,0 1.03044,0.39105 1.03044,1.03713c0,2.74205 0,10.07798 0,11.60956c0,0.54772 -0.39978,1.05936 -1.05882,1.05936c-2.76328,0 -23.84443,0 -25.36437,0c-0.54021,0 -1.04285,-0.52449 -1.04285,-1.08285z"/><path d="M227.13074,182.29856c0,-0.58228 0.47203,-1.05431 1.05431,-1.05431c0.58228,0 1.05431,0.47203 1.05431,1.05431c0,0.58228 -0.47203,1.05431 -1.05431,1.05431c-0.58228,0 -1.05431,-0.47203 -1.05431,-1.05431z"/><path d="M252.49512,182.30211c0,-0.58228 0.47203,-1.05431 1.05431,-1.05431c0.58228,0 1.05431,0.47203 1.05431,1.05431c0,0.58228 -0.47203,1.05431 -1.05431,1.05431c-0.58228,0 -1.05431,-0.47203 -1.05431,-1.05431z"/><path d="M252.50487,170.68443c0,-0.58228 0.47203,-1.05431 1.05431,-1.05431c0.58228,0 1.05431,0.47203 1.05431,1.05431c0,0.58228 -0.47203,1.05431 -1.05431,1.05431c-0.58228,0 -1.05431,-0.47203 -1.05431,-1.05431z"/><path d="M227.14699,170.68635c0,-0.58228 0.47203,-1.05431 1.05431,-1.05431c0.58228,0 1.05431,0.47203 1.05431,1.05431c0,0.58228 -0.47203,1.05431 -1.05431,1.05431c-0.58228,0 -1.05431,-0.47203 -1.05431,-1.05431z"/></g><g fill="#5c5c5c" stroke-width="0"><path d="M227.84649,181.39403c0,-1.53853 0,-8.81523 0,-11.56631c0,-0.65781 0.41085,-1.05688 1.08619,-1.05688c2.78734,0 23.84025,0 25.34941,0c0.53455,0 1.03044,0.39105 1.03044,1.03713c0,2.74205 0,10.07798 0,11.60956c0,0.54772 -0.39978,1.05936 -1.05881,1.05936c-2.76328,0 -23.84443,0 -25.36437,0c-0.54021,0 -1.04285,-0.52449 -1.04285,-1.08285z"/><path d="M227.83503,181.43785c0,-0.58228 0.47203,-1.05431 1.05431,-1.05431c0.58228,0 1.05431,0.47203 1.05431,1.05431c0,0.58228 -0.47203,1.05431 -1.05431,1.05431c-0.58228,0 -1.05431,-0.47203 -1.05431,-1.05431z"/><path d="M253.1994,181.4414c0,-0.58228 0.47203,-1.05431 1.05431,-1.05431c0.58228,0 1.05431,0.47203 1.05431,1.05431c0,0.58228 -0.47203,1.05431 -1.05431,1.05431c-0.58228,0 -1.05431,-0.47203 -1.05431,-1.05431z"/><path d="M253.20916,169.82372c0,-0.58228 0.47203,-1.05431 1.05431,-1.05431c0.58228,0 1.05431,0.47203 1.05431,1.05431c0,0.58228 -0.47203,1.05431 -1.05431,1.05431c-0.58228,0 -1.05431,-0.47203 -1.05431,-1.05431z"/><path d="M227.85128,169.82564c0,-0.58228 0.47203,-1.05431 1.05431,-1.05431c0.58228,0 1.05431,0.47203 1.05431,1.05431c0,0.58228 -0.47203,1.05431 -1.05431,1.05431c-0.58228,0 -1.05431,-0.47203 -1.05431,-1.05431z"/></g><g fill="#333333" stroke-width="0"><path d="M212.18387,167.35891c0,-1.53853 0,-8.81523 0,-11.56631c0,-0.65781 0.41085,-1.05688 1.08619,-1.05688c2.78734,0 38.77775,0 40.28692,0c0.53455,0 1.03043,0.39105 1.03043,1.03713c0,2.74205 0,10.07798 0,11.60956c0,0.54772 -0.39978,1.05936 -1.05881,1.05936c-2.76328,0 -38.78193,0 -40.30187,0c-0.54021,0 -1.04285,-0.52449 -1.04285,-1.08285z"/><path d="M212.17241,167.40273c0,-0.58228 0.47203,-1.05431 1.05431,-1.05431c0.58228,0 1.05431,0.47203 1.05431,1.05431c0,0.58228 -0.47203,1.05431 -1.05431,1.05431c-0.58228,0 -1.05431,-0.47203 -1.05431,-1.05431z"/><path d="M252.47428,167.40628c0,-0.58228 0.47203,-1.05431 1.05431,-1.05431c0.58228,0 1.05431,0.47203 1.05431,1.05431c0,0.58228 -0.47203,1.05431 -1.05431,1.05431c-0.58228,0 -1.05431,-0.47203 -1.05431,-1.05431z"/><path d="M252.48404,155.78859c0,-0.58228 0.47203,-1.05431 1.05431,-1.05431c0.58228,0 1.05431,0.47203 1.05431,1.05431c0,0.58228 -0.47203,1.05431 -1.05431,1.05431c-0.58228,0 -1.05431,-0.47203 -1.05431,-1.05431z"/><path d="M212.18866,155.79052c0,-0.58228 0.47203,-1.05431 1.05431,-1.05431c0.58228,0 1.05431,0.47203 1.05431,1.05431c0,0.58228 -0.47203,1.05431 -1.05431,1.05431c-0.58228,0 -1.05431,-0.47203 -1.05431,-1.05431z"/></g><g fill="#5c5c5c" stroke-width="0"><path d="M212.88815,166.4982c0,-1.53853 0,-8.81523 0,-11.56631c0,-0.65781 0.41085,-1.05688 1.08619,-1.05688c2.78734,0 38.77775,0 40.28691,0c0.53455,0 1.03044,0.39105 1.03044,1.03713c0,2.74205 0,10.07798 0,11.60956c0,0.54772 -0.39978,1.05936 -1.05881,1.05936c-2.76328,0 -38.78193,0 -40.30188,0c-0.54021,0 -1.04285,-0.52449 -1.04285,-1.08285z"/><path d="M212.87669,166.54201c0,-0.58228 0.47203,-1.05431 1.05431,-1.05431c0.58228,0 1.05431,0.47203 1.05431,1.05431c0,0.58228 -0.47203,1.05431 -1.05431,1.05431c-0.58228,0 -1.05431,-0.47203 -1.05431,-1.05431z"/><path d="M253.17857,166.54556c0,-0.58228 0.47203,-1.05431 1.05431,-1.05431c0.58228,0 1.05431,0.47203 1.05431,1.05431c0,0.58228 -0.47203,1.05431 -1.05431,1.05431c-0.58228,0 -1.05431,-0.47203 -1.05431,-1.05431z"/><path d="M253.18832,154.92788c0,-0.58228 0.47203,-1.05431 1.05431,-1.05431c0.58228,0 1.05431,0.47203 1.05431,1.05431c0,0.58228 -0.47203,1.05431 -1.05431,1.05431c-0.58228,0 -1.05431,-0.47203 -1.05431,-1.05431z"/><path d="M212.89294,154.9298c0,-0.58228 0.47203,-1.05431 1.05431,-1.05431c0.58228,0 1.05431,0.47203 1.05431,1.05431c0,0.58228 -0.47203,1.05431 -1.05431,1.05431c-0.58228,0 -1.05431,-0.47203 -1.05431,-1.05431z"/></g><path d="M212.67002,204.14784c0,-0.58228 0.47203,-1.05431 1.05431,-1.05431c0.58228,0 1.05431,0.47203 1.05431,1.05431c0,0.58228 -0.47203,1.05431 -1.05431,1.05431c-0.58228,0 -1.05431,-0.47203 -1.05431,-1.05431z" fill="#f3f3f3" stroke-width="0"/><path d="M212.68529,184.72096c0,-0.65903 0.51164,-1.05881 1.05936,-1.05881c1.53158,0 8.8675,0 11.60956,0c0.64607,0 1.03713,0.49588 1.03713,1.03043c0,1.11482 0,9.65435 0,15.1645c0,1.94906 -3.69339,5.33361 -5.41934,5.33361c-2.96582,0 -8.29227,0.00916 -8.29227,0.00916c0,0 0.00556,-17.7156 0.00556,-20.47889z" fill="#5c5c5c" stroke-width="0"/><path d="M212.66647,184.72096c0,-0.58228 0.47203,-1.05431 1.05431,-1.05431c0.58228,0 1.05431,0.47203 1.05431,1.05431c0,0.58228 -0.47203,1.05431 -1.05431,1.05431c-0.58228,0 -1.05431,-0.47203 -1.05431,-1.05431z" fill="#5c5c5c" stroke-width="0"/><path d="M224.28415,184.71121c0,-0.58228 0.47203,-1.05431 1.05431,-1.05431c0.58228,0 1.05431,0.47203 1.05431,1.05431c0,0.58228 -0.47203,1.05431 -1.05431,1.05431c-0.58228,0 -1.05431,-0.47203 -1.05431,-1.05431z" fill="#5c5c5c" stroke-width="0"/><path d="M215.98223,199.98159c0,-2.87427 2.33005,-5.20431 5.20431,-5.20431c2.87427,0 5.20431,2.33004 5.20431,5.20431c0,2.87427 -2.33004,5.20431 -5.20431,5.20431c-2.87427,0 -5.20431,-2.33004 -5.20431,-5.20431z" fill="#5c5c5c" stroke-width="0"/><path d="M210.14222,197.04521c0,-1.40067 1.13546,-2.53613 2.53613,-2.53613c1.40067,0 2.53613,1.13547 2.53613,2.53613c0,1.40067 -1.13546,2.53612 -2.53613,2.53612c-1.40067,0 -2.53613,-1.13546 -2.53613,-2.53612z" fill="#5c5c5c" stroke-width="0"/><path d="M210.14222,202.66339c0,-1.40067 1.13546,-2.53613 2.53613,-2.53613c1.40067,0 2.53613,1.13547 2.53613,2.53613c0,1.40067 -1.13546,2.53612 -2.53613,2.53612c-1.40067,0 -2.53613,-1.13546 -2.53613,-2.53612z" fill="#5c5c5c" stroke-width="0"/><path d="M210.14526,196.7922c0,0 1.79883,0.00935 2.51491,0.00935c1.40067,0 2.53613,1.36304 2.53613,3.04444c0,1.6814 -1.13546,3.04444 -2.53613,3.04444c-0.66424,0 -2.52098,-0.00065 -2.52098,-0.00065z" fill="#5c5c5c" stroke-width="0"/><text transform="translate(256.36581,188.13237) scale(0.11113,0.11113)" font-size="40" xml:space="preserve" fill="#666666" fill-rule="nonzero" stroke="none" stroke-width="1" stroke-linecap="butt" stroke-linejoin="miter" stroke-miterlimit="10" stroke-dasharray="" stroke-dashoffset="0" font-family="Sans Serif" font-weight="normal" text-anchor="start" style="mix-blend-mode: normal"><tspan x="0" dy="0">Studio</tspan></text><text transform="translate(231.49081,198.66035) scale(0.195,0.195)" font-size="40" xml:space="preserve" fill="#7c7c7c" fill-rule="nonzero" stroke="none" stroke-width="1" stroke-linecap="butt" stroke-linejoin="miter" stroke-miterlimit="10" stroke-dasharray="" stroke-dashoffset="0" font-family="Sans Serif" font-weight="normal" text-anchor="start" style="mix-blend-mode: normal"><tspan x="0" dy="0">爝火工作室</tspan></text><text transform="translate(229.99082,184.93576) scale(0.28602,0.28602)" font-size="40" xml:space="preserve" fill="#ababab" fill-rule="nonzero" stroke="none" stroke-width="1" stroke-linecap="butt" stroke-linejoin="miter" stroke-miterlimit="10" stroke-dasharray="" stroke-dashoffset="0" font-family="Sans Serif" font-weight="normal" text-anchor="start" style="mix-blend-mode: normal"><tspan x="0" dy="0">jueFire </tspan></text><path d="M205.22499,214.77501v-69.55002h69.55002v69.55002z" fill="none" stroke-width="0"/></g></g></svg>