<svg version="1.1" xmlns="http://www.w3.org/2000/svg" xmlns:xlink="http://www.w3.org/1999/xlink" width="69.55002" height="69.55002" viewBox="0,0,69.55002,69.55002"><g transform="translate(-205.22499,-145.22499)"><g data-paper-data="{&quot;isPaintingLayer&quot;:true}" fill-rule="nonzero" stroke-linejoin="miter" stroke-miterlimit="10" stroke-dasharray="" stroke-dashoffset="0" style="mix-blend-mode: normal"><text transform="translate(225.87564,202.27383) scale(0.42524,0.4377)" font-size="40" xml:space="preserve" fill="#525252" fill-rule="nonzero" stroke="none" stroke-width="1" stroke-linecap="butt" stroke-linejoin="miter" stroke-miterlimit="10" stroke-dasharray="" stroke-dashoffset="0" font-family="Sans Serif" font-weight="normal" text-anchor="start" style="mix-blend-mode: normal"><tspan x="0" dy="0">ueIRE</tspan></text><path d="M273.25942,203.00731h-47.5" fill="none" stroke="#4c4c4c" stroke-width="0.5" stroke-linecap="round"/><path d="M205.22499,214.77501v-69.55002h69.55002v69.55002z" fill="none" stroke="none" stroke-width="0" stroke-linecap="butt"/><g stroke="none" stroke-width="0" stroke-linecap="butt"><g fill="#333333"><path d="M209.96212,184.24775c0,-0.65903 0.51164,-1.05881 1.05936,-1.05881c1.53158,0 8.8675,0 11.60956,0c0.64607,0 1.03713,0.49588 1.03713,1.03043c0,1.11482 0,9.65435 0,15.1645c0,1.94906 -3.69339,5.33361 -5.41934,5.33361c-2.96582,0 -8.29227,0.00916 -8.29227,0.00916c0,0 0.00556,-17.7156 0.00556,-20.47889z"/><path d="M209.94329,184.24775c0,-0.58228 0.47203,-1.05431 1.05431,-1.05431c0.58228,0 1.05431,0.47203 1.05431,1.05431c0,0.58228 -0.47203,1.05431 -1.05431,1.05431c-0.58228,0 -1.05431,-0.47203 -1.05431,-1.05431z"/><path d="M221.56097,184.23799c0,-0.58228 0.47203,-1.05431 1.05431,-1.05431c0.58228,0 1.05431,0.47203 1.05431,1.05431c0,0.58228 -0.47203,1.05431 -1.05431,1.05431c-0.58228,0 -1.05431,-0.47203 -1.05431,-1.05431z"/><path d="M213.25905,199.50837c0,-2.87427 2.33005,-5.20431 5.20431,-5.20431c2.87427,0 5.20431,2.33004 5.20431,5.20431c0,2.87427 -2.33004,5.20431 -5.20431,5.20431c-2.87427,0 -5.20431,-2.33004 -5.20431,-5.20431z"/><path d="M207.41905,196.57199c0,-1.40067 1.13546,-2.53613 2.53613,-2.53613c1.40067,0 2.53613,1.13547 2.53613,2.53613c0,1.40067 -1.13546,2.53612 -2.53613,2.53612c-1.40067,0 -2.53613,-1.13546 -2.53613,-2.53612z"/><path d="M207.41905,202.19017c0,-1.40067 1.13546,-2.53613 2.53613,-2.53613c1.40067,0 2.53613,1.13547 2.53613,2.53613c0,1.40067 -1.13546,2.53612 -2.53613,2.53612c-1.40067,0 -2.53613,-1.13546 -2.53613,-2.53612z"/><path d="M207.42209,196.31898c0,0 1.79883,0.00935 2.51491,0.00935c1.40067,0 2.53613,1.36304 2.53613,3.04444c0,1.6814 -1.13546,3.04444 -2.53613,3.04444c-0.66424,0 -2.52098,-0.00065 -2.52098,-0.00065z"/></g><g fill="#333333"><path d="M209.93677,180.97816c0,-1.53853 0,-8.81523 0,-11.56631c0,-0.65781 0.41085,-1.05688 1.08619,-1.05688c2.78734,0 10.08025,0 11.58941,0c0.53455,0 1.03044,0.39105 1.03044,1.03713c0,2.74205 0,10.07798 0,11.60956c0,0.54772 -0.39978,1.05936 -1.05882,1.05936c-2.76328,0 -10.08443,0 -11.60437,0c-0.54021,0 -1.04285,-0.52449 -1.04285,-1.08285z"/><path d="M209.92531,181.02198c0,-0.58228 0.47203,-1.05431 1.05431,-1.05431c0.58228,0 1.05431,0.47203 1.05431,1.05431c0,0.58228 -0.47203,1.05431 -1.05431,1.05431c-0.58228,0 -1.05431,-0.47203 -1.05431,-1.05431z"/><path d="M221.52968,181.02553c0,-0.58228 0.47203,-1.05431 1.05431,-1.05431c0.58228,0 1.05431,0.47203 1.05431,1.05431c0,0.58228 -0.47203,1.05431 -1.05431,1.05431c-0.58228,0 -1.05431,-0.47203 -1.05431,-1.05431z"/><path d="M221.53944,169.40785c0,-0.58228 0.47203,-1.05431 1.05431,-1.05431c0.58228,0 1.05431,0.47203 1.05431,1.05431c0,0.58228 -0.47203,1.05431 -1.05431,1.05431c-0.58228,0 -1.05431,-0.47203 -1.05431,-1.05431z"/><path d="M209.94156,169.40977c0,-0.58228 0.47203,-1.05431 1.05431,-1.05431c0.58228,0 1.05431,0.47203 1.05431,1.05431c0,0.58228 -0.47203,1.05431 -1.05431,1.05431c-0.58228,0 -1.05431,-0.47203 -1.05431,-1.05431z"/></g><g fill="#2c84ff"><path d="M210.64105,180.11745c0,-1.53853 0,-8.81523 0,-11.56631c0,-0.65781 0.41085,-1.05688 1.08619,-1.05688c2.78734,0 10.08025,0 11.58941,0c0.53455,0 1.03044,0.39104 1.03044,1.03712c0,2.74205 0,10.07798 0,11.60956c0,0.54772 -0.39978,1.05936 -1.05882,1.05936c-2.76328,0 -10.08443,0 -11.60437,0c-0.54021,0 -1.04285,-0.52449 -1.04285,-1.08285z"/><path d="M210.62959,180.16127c0,-0.58228 0.47203,-1.05431 1.05431,-1.05431c0.58228,0 1.05431,0.47203 1.05431,1.05431c0,0.58228 -0.47203,1.05431 -1.05431,1.05431c-0.58228,0 -1.05431,-0.47203 -1.05431,-1.05431z"/><path d="M222.23397,180.16481c0,-0.58228 0.47203,-1.05431 1.05431,-1.05431c0.58228,0 1.05431,0.47203 1.05431,1.05431c0,0.58228 -0.47203,1.05431 -1.05431,1.05431c-0.58228,0 -1.05431,-0.47203 -1.05431,-1.05431z"/><path d="M222.24372,168.54713c0,-0.58228 0.47203,-1.05431 1.05431,-1.05431c0.58228,0 1.05431,0.47203 1.05431,1.05431c0,0.58228 -0.47203,1.05431 -1.05431,1.05431c-0.58228,0 -1.05431,-0.47203 -1.05431,-1.05431z"/><path d="M210.64584,168.54905c0,-0.58228 0.47203,-1.05431 1.05431,-1.05431c0.58228,0 1.05431,0.47203 1.05431,1.05431c0,0.58228 -0.47203,1.05431 -1.05431,1.05431c-0.58228,0 -1.05431,-0.47203 -1.05431,-1.05431z"/></g><g fill="#333333"><path d="M225.04998,180.85495c0,-1.53853 0,-8.81523 0,-11.56631c0,-0.65781 0.41085,-1.05688 1.08619,-1.05688c2.78734,0 23.84025,0 25.34941,0c0.53455,0 1.03044,0.39105 1.03044,1.03713c0,2.74205 0,10.07798 0,11.60956c0,0.54772 -0.39978,1.05936 -1.05882,1.05936c-2.76328,0 -23.84443,0 -25.36437,0c-0.54021,0 -1.04285,-0.52449 -1.04285,-1.08285z"/><path d="M225.03852,180.89876c0,-0.58228 0.47203,-1.05431 1.05431,-1.05431c0.58228,0 1.05431,0.47203 1.05431,1.05431c0,0.58228 -0.47203,1.05431 -1.05431,1.05431c-0.58228,0 -1.05431,-0.47203 -1.05431,-1.05431z"/><path d="M250.4029,180.90231c0,-0.58228 0.47203,-1.05431 1.05431,-1.05431c0.58228,0 1.05431,0.47203 1.05431,1.05431c0,0.58228 -0.47203,1.05431 -1.05431,1.05431c-0.58228,0 -1.05431,-0.47203 -1.05431,-1.05431z"/><path d="M250.41265,169.28463c0,-0.58228 0.47203,-1.05431 1.05431,-1.05431c0.58228,0 1.05431,0.47203 1.05431,1.05431c0,0.58228 -0.47203,1.05431 -1.05431,1.05431c-0.58228,0 -1.05431,-0.47203 -1.05431,-1.05431z"/><path d="M225.05477,169.28655c0,-0.58228 0.47203,-1.05431 1.05431,-1.05431c0.58228,0 1.05431,0.47203 1.05431,1.05431c0,0.58228 -0.47203,1.05431 -1.05431,1.05431c-0.58228,0 -1.05431,-0.47203 -1.05431,-1.05431z"/></g><g fill="#5c5c5c"><path d="M225.75427,179.99423c0,-1.53853 0,-8.81523 0,-11.56631c0,-0.65781 0.41085,-1.05688 1.08619,-1.05688c2.78734,0 23.84025,0 25.34941,0c0.53455,0 1.03044,0.39105 1.03044,1.03713c0,2.74205 0,10.07798 0,11.60956c0,0.54772 -0.39978,1.05936 -1.05881,1.05936c-2.76328,0 -23.84443,0 -25.36437,0c-0.54021,0 -1.04285,-0.52449 -1.04285,-1.08285z"/><path d="M225.74281,180.03805c0,-0.58228 0.47203,-1.05431 1.05431,-1.05431c0.58228,0 1.05431,0.47203 1.05431,1.05431c0,0.58228 -0.47203,1.05431 -1.05431,1.05431c-0.58228,0 -1.05431,-0.47203 -1.05431,-1.05431z"/><path d="M251.10718,180.0416c0,-0.58228 0.47203,-1.05431 1.05431,-1.05431c0.58228,0 1.05431,0.47203 1.05431,1.05431c0,0.58228 -0.47203,1.05431 -1.05431,1.05431c-0.58228,0 -1.05431,-0.47203 -1.05431,-1.05431z"/><path d="M251.11694,168.42392c0,-0.58228 0.47203,-1.05431 1.05431,-1.05431c0.58228,0 1.05431,0.47203 1.05431,1.05431c0,0.58228 -0.47203,1.05431 -1.05431,1.05431c-0.58228,0 -1.05431,-0.47203 -1.05431,-1.05431z"/><path d="M225.75906,168.42584c0,-0.58228 0.47203,-1.05431 1.05431,-1.05431c0.58228,0 1.05431,0.47203 1.05431,1.05431c0,0.58228 -0.47203,1.05431 -1.05431,1.05431c-0.58228,0 -1.05431,-0.47203 -1.05431,-1.05431z"/></g><g fill="#333333"><path d="M210.09165,165.95911c0,-1.53853 0,-8.81523 0,-11.56631c0,-0.65781 0.41085,-1.05688 1.08619,-1.05688c2.78734,0 38.77775,0 40.28692,0c0.53455,0 1.03043,0.39105 1.03043,1.03713c0,2.74205 0,10.07798 0,11.60956c0,0.54772 -0.39978,1.05936 -1.05881,1.05936c-2.76328,0 -38.78193,0 -40.30187,0c-0.54021,0 -1.04285,-0.52449 -1.04285,-1.08285z"/><path d="M210.08019,166.00293c0,-0.58228 0.47203,-1.05431 1.05431,-1.05431c0.58228,0 1.05431,0.47203 1.05431,1.05431c0,0.58228 -0.47203,1.05431 -1.05431,1.05431c-0.58228,0 -1.05431,-0.47203 -1.05431,-1.05431z"/><path d="M250.38206,166.00648c0,-0.58228 0.47203,-1.05431 1.05431,-1.05431c0.58228,0 1.05431,0.47203 1.05431,1.05431c0,0.58228 -0.47203,1.05431 -1.05431,1.05431c-0.58228,0 -1.05431,-0.47203 -1.05431,-1.05431z"/><path d="M250.39182,154.38878c0,-0.58228 0.47203,-1.05431 1.05431,-1.05431c0.58228,0 1.05431,0.47203 1.05431,1.05431c0,0.58228 -0.47203,1.05431 -1.05431,1.05431c-0.58228,0 -1.05431,-0.47203 -1.05431,-1.05431z"/><path d="M210.09644,154.39072c0,-0.58228 0.47203,-1.05431 1.05431,-1.05431c0.58228,0 1.05431,0.47203 1.05431,1.05431c0,0.58228 -0.47203,1.05431 -1.05431,1.05431c-0.58228,0 -1.05431,-0.47203 -1.05431,-1.05431z"/></g><g fill="#5c5c5c"><path d="M210.79593,165.0984c0,-1.53853 0,-8.81523 0,-11.56631c0,-0.65781 0.41085,-1.05688 1.08619,-1.05688c2.78734,0 38.77775,0 40.28691,0c0.53455,0 1.03044,0.39105 1.03044,1.03713c0,2.74205 0,10.07798 0,11.60956c0,0.54772 -0.39978,1.05936 -1.05881,1.05936c-2.76328,0 -38.78193,0 -40.30188,0c-0.54021,0 -1.04285,-0.52449 -1.04285,-1.08285z"/><path d="M210.78447,165.14221c0,-0.58228 0.47203,-1.05431 1.05431,-1.05431c0.58228,0 1.05431,0.47203 1.05431,1.05431c0,0.58228 -0.47203,1.05431 -1.05431,1.05431c-0.58228,0 -1.05431,-0.47203 -1.05431,-1.05431z"/><path d="M251.08635,165.14576c0,-0.58228 0.47203,-1.05431 1.05431,-1.05431c0.58228,0 1.05431,0.47203 1.05431,1.05431c0,0.58228 -0.47203,1.05431 -1.05431,1.05431c-0.58228,0 -1.05431,-0.47203 -1.05431,-1.05431z"/><path d="M251.0961,153.52808c0,-0.58228 0.47203,-1.05431 1.05431,-1.05431c0.58228,0 1.05431,0.47203 1.05431,1.05431c0,0.58228 -0.47203,1.05431 -1.05431,1.05431c-0.58228,0 -1.05431,-0.47203 -1.05431,-1.05431z"/><path d="M210.80072,153.52999c0,-0.58228 0.47203,-1.05431 1.05431,-1.05431c0.58228,0 1.05431,0.47203 1.05431,1.05431c0,0.58228 -0.47203,1.05431 -1.05431,1.05431c-0.58228,0 -1.05431,-0.47203 -1.05431,-1.05431z"/></g><path d="M210.5778,202.74804c0,-0.58228 0.47203,-1.05431 1.05431,-1.05431c0.58228,0 1.05431,0.47203 1.05431,1.05431c0,0.58228 -0.47203,1.05431 -1.05431,1.05431c-0.58228,0 -1.05431,-0.47203 -1.05431,-1.05431z" fill="#f3f3f3"/><path d="M210.59307,183.32116c0,-0.65903 0.51164,-1.05881 1.05936,-1.05881c1.53158,0 8.8675,0 11.60956,0c0.64607,0 1.03713,0.49588 1.03713,1.03043c0,1.11482 0,9.65435 0,15.1645c0,1.94906 -3.69339,5.33361 -5.41934,5.33361c-2.96582,0 -8.29227,0.00916 -8.29227,0.00916c0,0 0.00556,-17.7156 0.00556,-20.47889z" fill="#5c5c5c"/><path d="M210.57425,183.32116c0,-0.58228 0.47203,-1.05431 1.05431,-1.05431c0.58228,0 1.05431,0.47203 1.05431,1.05431c0,0.58228 -0.47203,1.05431 -1.05431,1.05431c-0.58228,0 -1.05431,-0.47203 -1.05431,-1.05431z" fill="#5c5c5c"/><path d="M222.19193,183.31141c0,-0.58228 0.47203,-1.05431 1.05431,-1.05431c0.58228,0 1.05431,0.47203 1.05431,1.05431c0,0.58228 -0.47203,1.05431 -1.05431,1.05431c-0.58228,0 -1.05431,-0.47203 -1.05431,-1.05431z" fill="#5c5c5c"/><path d="M213.89001,198.58179c0,-2.87427 2.33005,-5.20431 5.20431,-5.20431c2.87427,0 5.20431,2.33004 5.20431,5.20431c0,2.87427 -2.33004,5.20431 -5.20431,5.20431c-2.87427,0 -5.20431,-2.33004 -5.20431,-5.20431z" fill="#5c5c5c"/><path d="M208.05,195.64541c0,-1.40067 1.13546,-2.53613 2.53613,-2.53613c1.40067,0 2.53613,1.13547 2.53613,2.53613c0,1.40067 -1.13546,2.53612 -2.53613,2.53612c-1.40067,0 -2.53613,-1.13546 -2.53613,-2.53612z" fill="#5c5c5c"/><path d="M208.05,201.26359c0,-1.40067 1.13546,-2.53613 2.53613,-2.53613c1.40067,0 2.53613,1.13547 2.53613,2.53613c0,1.40067 -1.13546,2.53612 -2.53613,2.53612c-1.40067,0 -2.53613,-1.13546 -2.53613,-2.53612z" fill="#5c5c5c"/><path d="M208.05304,195.3924c0,0 1.79883,0.00935 2.51491,0.00935c1.40067,0 2.53613,1.36304 2.53613,3.04444c0,1.6814 -1.13546,3.04444 -2.53613,3.04444c-0.66424,0 -2.52098,-0.00065 -2.52098,-0.00065z" fill="#5c5c5c"/></g></g></g></svg>